<mxfile host="app.diagrams.net" agent="Mozilla/5.0 (Windows NT 10.0; Win64; x64) AppleWebKit/537.36 (KHTML, like Gecko) Chrome/135.0.0.0 Safari/537.36" version="26.2.14">
  <diagram name="Page-1" id="EbWSVPURzx_kGXBuHbk-">
    <mxGraphModel dx="489" dy="770" grid="1" gridSize="10" guides="1" tooltips="1" connect="1" arrows="1" fold="1" page="1" pageScale="1" pageWidth="850" pageHeight="1100" math="0" shadow="0">
      <root>
        <mxCell id="0" />
        <mxCell id="1" parent="0" />
        <mxCell id="Wxq7bxkQ6diz4ZsvPICp-1" value="User" style="shape=umlActor;verticalLabelPosition=bottom;verticalAlign=top;html=1;outlineConnect=0;" vertex="1" parent="1">
          <mxGeometry x="210" y="190" width="30" height="60" as="geometry" />
        </mxCell>
        <mxCell id="Wxq7bxkQ6diz4ZsvPICp-2" value="Satpam&lt;div&gt;&lt;br&gt;&lt;/div&gt;" style="shape=umlActor;verticalLabelPosition=bottom;verticalAlign=top;html=1;outlineConnect=0;" vertex="1" parent="1">
          <mxGeometry x="200" y="410" width="30" height="60" as="geometry" />
        </mxCell>
        <mxCell id="Wxq7bxkQ6diz4ZsvPICp-4" value="Memasukan Ciri Ciri Barang, Foto dan Lokasi Barang" style="ellipse;whiteSpace=wrap;html=1;" vertex="1" parent="1">
          <mxGeometry x="305" y="150" width="120" height="80" as="geometry" />
        </mxCell>
        <mxCell id="Wxq7bxkQ6diz4ZsvPICp-5" value="&lt;div&gt;Sistem&lt;/div&gt;" style="shape=umlActor;verticalLabelPosition=bottom;verticalAlign=top;html=1;outlineConnect=0;" vertex="1" parent="1">
          <mxGeometry x="510" y="380" width="30" height="60" as="geometry" />
        </mxCell>
        <mxCell id="Wxq7bxkQ6diz4ZsvPICp-7" value="Menyimpan Data Informasi Barang Hilang" style="ellipse;whiteSpace=wrap;html=1;" vertex="1" parent="1">
          <mxGeometry x="305" y="280" width="120" height="80" as="geometry" />
        </mxCell>
        <mxCell id="Wxq7bxkQ6diz4ZsvPICp-8" value="Mengirim Notifikasi Barang Cocok / Tidak Cocok" style="ellipse;whiteSpace=wrap;html=1;" vertex="1" parent="1">
          <mxGeometry x="305" y="410" width="120" height="80" as="geometry" />
        </mxCell>
        <mxCell id="Wxq7bxkQ6diz4ZsvPICp-12" value="Mengirim Notifikasi Barang Cocok / Tidak Cocok" style="ellipse;whiteSpace=wrap;html=1;" vertex="1" parent="1">
          <mxGeometry x="315" y="420" width="120" height="80" as="geometry" />
        </mxCell>
      </root>
    </mxGraphModel>
  </diagram>
</mxfile>
